<svg width="131" height="118" xmlns="http://www.w3.org/2000/svg" xmlns:undefined="http://www.inkscape.org/namespaces/inkscape">
 <defs>
  <filter color-interpolation-filters="sRGB" height="1.2574" x="-0.11242" y="-0.12868" width="1.2248" id="imagebot_6">
   <feGaussianBlur  stdDeviation="1.49992" id="imagebot_7"/>
  </filter>
 </defs>
 <g label="Calque 1" id="imagebot_2">
  <g label="Calque 1" transform="translate(-10.1532 -2.42721) matrix(3.8244 0 0 3.8244 -838.55 -681.8)" id="imagebot_3">
   <path filter="url(#imagebot_6)" fill="#7a7a7a" d="M235.8,181.88C234.0934,181.9603 232.6308,182.882 231.425,185.2238C227.5449,183.7274 224.9582,186.04309 225.55,189.7238C223.0624,190.9319 221.918,194.7039 227.55,195.8488C226.9087,197.7709 227.81638,199.1767 230.175,200.0988C230.74157,201.9173 231.5843,203.2938 233.8,202.4738C235.8806,204.407 238.3028,204.2906 241.05,202.2238C243.7076,203.04431 246.3559,202.934 248.175,199.5988C250.0522,199.5119 253.0397,199.71783 252.55,195.5988C254.2799,194.4574 256.1042,192.9038 253.8,190.5988C253.97155,187.9491 253.15042,185.0268 249.55,184.8488C247.0823,181.4698 244.0166,181.411 240.175,182.9738C238.6121,182.2583 237.1274,181.8176 235.8,181.88zM229.1125,202.849C228.18052,202.849 227.425,203.40864 227.425,204.099S228.18052,205.349 229.1125,205.349S230.8,204.78936 230.8,204.099S230.04448,202.849 229.1125,202.849zM226.425,206.099C225.76916,206.099 225.2375,206.50456 225.2375,206.974S225.76916,207.81775 226.425,207.81775S227.6125,207.44344 227.6125,206.974S227.08084,206.099 226.425,206.099zM223.3938,209.1928C223.09004,209.1928 222.86255,209.34877 222.86255,209.53655S223.09004,209.84905 223.3938,209.84905S223.9563,209.72433 223.9563,209.53655S223.69756,209.1928 223.3938,209.1928z" id="imagebot_5"/>
   <path stroke="#000000" stroke-width="0.26148px" fill="#ffffff" d="M235.94,179.38C234.2334,179.4603 232.7708,180.382 231.565,182.7238C227.6849,181.2274 225.0982,183.54309 225.69,187.2238C223.2024,188.4319 222.058,192.2039 227.69,193.3488C227.0487,195.2709 227.95638,196.6767 230.315,197.5988C230.88157,199.4173 231.7243,200.7938 233.94,199.9738C236.0206,201.907 238.4428,201.7906 241.19,199.7238C243.8476,200.54431 246.4959,200.434 248.315,197.0988C250.1922,197.0119 253.1797,197.21783 252.69,193.0988C254.4199,191.9574 256.2442,190.4038 253.94,188.0988C254.11155,185.4491 253.29042,182.5268 249.69,182.3488C247.2223,178.9698 244.1566,178.911 240.315,180.4738C238.7521,179.7583 237.2674,179.3176 235.94,179.38zM229.2525,200.349C228.32052,200.349 227.565,200.90864 227.565,201.599S228.32052,202.849 229.2525,202.849S230.94,202.28936 230.94,201.599S230.18448,200.349 229.2525,200.349zM226.565,203.599C225.90916,203.599 225.3775,204.00456 225.3775,204.474S225.90916,205.31775 226.565,205.31775S227.7525,204.94344 227.7525,204.474S227.22084,203.599 226.565,203.599zM223.5338,206.6928C223.23004,206.6928 223.00255,206.84877 223.00255,207.03655S223.23004,207.34905 223.5338,207.34905S224.0963,207.22433 224.0963,207.03655S223.83756,206.6928 223.5338,206.6928z" id="imagebot_4"/>
  </g>
  <title>Calque 1</title>
  <text transform="translate(0 2) matrix(2.57012 0 0 1.84433 -22.067 -33.0026)" xml:space="preserve" text-anchor="middle" font-family="serif" font-size="10" id="imagebot_8" y="41.5" x="35" stroke-linecap="round" stroke-linejoin="round" stroke-width="0" stroke="#000000" fill="#000000">Blah Blah</text>
 </g>
 <metadata>image/svg+xmlOpenclipartSpeech bubble2010-04-06T21:00:46speech bubblehttps://openclipart.org/detail/38593/speech-bubble-by-pascallapalmepascallapalmecartoonspeech bubble</metadata>
</svg>